<svg width="1440" height="320" viewBox="0 0 1440 320" fill="none" xmlns="http://www.w3.org/2000/svg">
<path d="M-6.95654 160L41.2753 176C89.5072 192 185.971 224 282.435 245.3C378.899 267 475.362 277 571.826 266.7C668.29 256 764.754 224 861.217 213.3C957.681 203 1054.14 213 1150.61 181.3C1247.07 149 1343.54 75 1391.77 37.3L1440 0V320H1391.77C1343.54 320 1247.07 320 1150.61 320C1054.14 320 957.681 320 861.217 320C764.754 320 668.29 320 571.826 320C475.362 320 378.899 320 282.435 320C185.971 320 89.5072 320 41.2753 320H-6.95654V160Z" fill="#012267"/>
</svg>
