<svg width="1431" height="203" viewBox="0 0 1431 203" fill="none" xmlns="http://www.w3.org/2000/svg">
<path d="M-16 101L32.2319 95.7C80.4638 90 176.928 80 273.391 106.3C369.855 133 466.319 197 562.783 202.3C659.246 208 755.71 154 852.174 143.7C948.638 133 1045.1 165 1141.57 143.7C1238.03 122 1334.49 48 1382.72 10.3L1430.96 -27V-59H1382.72C1334.49 -59 1238.03 -59 1141.57 -59C1045.1 -59 948.638 -59 852.174 -59C755.71 -59 659.246 -59 562.783 -59C466.319 -59 369.855 -59 273.391 -59C176.928 -59 80.4638 -59 32.2319 -59H-16V101Z" fill="#FF314D"/>
</svg>
